<?xml version="1.0" encoding="UTF-8" standalone="no"?>
<!-- Created with Inkscape (http://www.inkscape.org/) -->

<svg
   width="512"
   height="512"
   viewBox="0 0 512 512"
   version="1.1"
   id="svg1"
   inkscape:version="1.4 (86a8ad7, 2024-10-11)"
   sodipodi:docname="inomeado.svg"
   inkscape:export-filename="logo com frase.svg"
   inkscape:export-xdpi="96"
   inkscape:export-ydpi="96"
   xmlns:inkscape="http://www.inkscape.org/namespaces/inkscape"
   xmlns:sodipodi="http://sodipodi.sourceforge.net/DTD/sodipodi-0.dtd"
   xmlns="http://www.w3.org/2000/svg"
   xmlns:svg="http://www.w3.org/2000/svg">
  <sodipodi:namedview
     id="namedview1"
     pagecolor="#ffffff"
     bordercolor="#000000"
     borderopacity="0.25"
     inkscape:showpageshadow="2"
     inkscape:pageopacity="0.0"
     inkscape:pagecheckerboard="0"
     inkscape:deskcolor="#d1d1d1"
     inkscape:document-units="px"
     inkscape:zoom="1.1255704"
     inkscape:cx="188.34895"
     inkscape:cy="310.50924"
     inkscape:window-width="1920"
     inkscape:window-height="1017"
     inkscape:window-x="-8"
     inkscape:window-y="-8"
     inkscape:window-maximized="1"
     inkscape:current-layer="layer1">
    <inkscape:page
       x="0"
       y="0"
       width="512"
       height="512"
       id="page2"
       margin="0"
       bleed="0" />
  </sodipodi:namedview>
  <defs
     id="defs1" />
  <g
     inkscape:label="Camada 1"
     inkscape:groupmode="layer"
     id="layer1">
    <g
       id="g15"
       transform="translate(-4.0474515e-5,37.325222)">
      <path
         id="rect6-5"
         style="fill:#ffa703;fill-opacity:1;stroke:#000000;stroke-width:0.706998;stroke-opacity:0"
         d="m 57.1332,163.89451 c -6.7968,0 -12.2676,6.3329 -12.2676,14.19922 0,7.57392 5.0757,13.70935 11.5195,14.15625 h 88.7129 c 0.2151,0 0.4237,0.0319 0.6368,0.043 h 34.957 c 6.7968,0 12.2676,-6.3329 12.2676,-14.19922 0,-7.86632 -5.4708,-14.19922 -12.2676,-14.19922 z" />
      <path
         id="rect6-9-1"
         style="fill:#ff8503;fill-opacity:1;stroke:#000000;stroke-width:0.706998;stroke-opacity:0"
         d="m 87.2641,163.89451 c -6.7968,0 -12.2696,6.3329 -12.2696,14.19922 0,7.57392 5.0777,13.70935 11.5215,14.15625 h 58.582 c 0.2151,0 0.4237,0.0319 0.6368,0.043 h 65.0878 c 6.7968,0 12.2676,-6.3329 12.2676,-14.19922 0,-7.86632 -5.4708,-14.19922 -12.2676,-14.19922 z" />
      <path
         id="rect6-8-7"
         style="fill:#e85323;fill-opacity:1;stroke:#000000;stroke-width:0.706998;stroke-opacity:0"
         d="m 125.5433,163.89451 c -6.7967,0 -12.2675,6.3329 -12.2675,14.19922 0,7.57392 5.0757,13.70935 11.5195,14.15625 h 20.3027 c 0.2151,0 0.4237,0.0319 0.6368,0.043 h 103.3671 c 6.7968,0 12.2676,-6.3329 12.2676,-14.19922 0,-7.86632 -5.4708,-14.19922 -12.2676,-14.19922 z" />
      <path
         id="rect6-2-1"
         style="fill:#ffa703;fill-opacity:1;stroke:#000000;stroke-width:0.706998;stroke-opacity:0"
         d="m 168.5274,311.21293 c -0.7297,0.14174 -1.4689,0.24024 -2.2265,0.24024 H 90.9005 c -5.7374,1.19547 -10.0684,6.96425 -10.0684,13.95898 0,7.86632 5.4728,14.19922 12.2695,14.19922 h 123.5586 c 6.7968,0 12.2676,-6.3329 12.2676,-14.19922 0,-7.86631 -5.4708,-14.19922 -12.2676,-14.19922 z" />
      <path
         id="rect6-9-6-1"
         style="fill:#ff8503;fill-opacity:1;stroke:#000000;stroke-width:0.706998;stroke-opacity:0"
         d="m 168.5274,311.21293 c -0.7297,0.14174 -1.4689,0.24024 -2.2265,0.24024 h -45.2696 c -5.7373,1.19547 -10.0683,6.96425 -10.0683,13.95898 0,7.86632 5.4727,14.19922 12.2695,14.19922 h 123.5566 c 6.7968,0 12.2696,-6.3329 12.2696,-14.19922 0,-7.86631 -5.4728,-14.19922 -12.2696,-14.19922 z" />
      <path
         id="rect6-8-0-5"
         style="fill:#e85323;fill-opacity:1;stroke:#000000;stroke-width:0.706998;stroke-opacity:0"
         d="m 168.5274,311.21293 c -0.7297,0.14174 -1.4689,0.24024 -2.2265,0.24024 h -6.9903 c -5.7373,1.19547 -10.0664,6.96425 -10.0664,13.95898 0,7.86632 5.4708,14.19922 12.2676,14.19922 h 123.5586 c 6.7968,0 12.2676,-6.3329 12.2676,-14.19922 0,-7.86631 -5.4708,-14.19922 -12.2676,-14.19922 z" />
      <path
         id="rect6-9-0-2"
         style="fill:#ff8503;fill-opacity:1;stroke:#000000;stroke-width:0.706998;stroke-opacity:0"
         d="m 99.7618,236.12309 c -6.7968,0 -12.2695,6.3329 -12.2695,14.19922 0,7.11509 4.4826,12.95922 10.3672,14.01367 h 68.4414 c 0.6699,0 1.3261,0.0743 1.9746,0.18555 h 17.0293 l -5.1602,-28.39844 z" />
      <path
         id="rect6-8-9-7"
         style="fill:#e85323;fill-opacity:1;stroke:#000000;stroke-width:0.706998;stroke-opacity:0"
         d="m 138.0411,236.12309 c -6.7968,0 -12.2676,6.3329 -12.2676,14.19922 0,7.11509 4.4807,12.95922 10.3653,14.01367 h 30.1621 c 0.6699,0 1.3261,0.0743 1.9746,0.18555 h 17.0293 l -5.1602,-28.39844 z" />
      <rect
         style="fill:#ffa703;fill-opacity:1;stroke:#16feeb;stroke-width:1.25101;stroke-opacity:0"
         id="rect4-5-34-1-1"
         width="173.97658"
         height="30.620256"
         x="310.26501"
         y="-336.26483"
         ry="14.35323"
         transform="matrix(0.26312016,0.96476307,-0.90711168,0.42089,0,0)"
         inkscape:label="rect4-5-34-1" />
      <rect
         style="fill:#ffa703;fill-opacity:1;stroke:#16feeb;stroke-width:1.25101;stroke-opacity:0"
         id="rect4-5-34-1-7-4"
         width="173.97658"
         height="30.620256"
         x="291.98944"
         y="-282.61285"
         ry="14.35323"
         transform="matrix(0.26312016,0.96476307,-0.90711168,0.42089,0,0)"
         inkscape:label="rect4-5-34-1" />
      <rect
         style="fill:#ffa703;fill-opacity:1;stroke:#16feeb;stroke-width:1.25101;stroke-opacity:0"
         id="rect4-5-34-1-7-9-2"
         width="173.97658"
         height="30.620256"
         x="267.24573"
         y="-225.89351"
         ry="14.35323"
         transform="matrix(0.26312016,0.96476307,-0.90711168,0.42089,0,0)"
         inkscape:label="rect4-5-34-1" />
      <rect
         style="fill:#ffa703;fill-opacity:1;stroke:#16feeb;stroke-width:1.25101;stroke-opacity:0"
         id="rect4-5-34-1-7-9-8-3"
         width="173.97658"
         height="30.620256"
         x="243.36278"
         y="-171.14729"
         ry="14.35323"
         transform="matrix(0.26312016,0.96476307,-0.90711168,0.42089,0,0)"
         inkscape:label="rect4-5-34-1" />
      <path
         id="rect4-5-34-1-7-9-8-0-2"
         style="fill:#ffa703;fill-opacity:1;stroke:#16feeb;stroke-width:1.24215;stroke-opacity:0"
         inkscape:label="rect4-5-34-1"
         d="m 156.0626,167.52348 c -1.7494,0.0244 -3.5698,0.4348 -5.3731,1.27149 l -1.7363,0.80664 c -7.2131,3.34679 -11.3364,12.21717 -9.2441,19.88867 l 0.7519,2.75976 h 4.6367 c 9.0795,0 16.3907,9.90128 16.3907,22.19922 0,8.94695 -3.8794,16.60341 -9.4844,20.12305 l 8.1172,29.76367 h 6.1797 c 9.0779,0 16.3867,10.50701 16.3867,23.5586 0,9.89338 -4.2031,18.31337 -10.1895,21.81445 l 5.4356,19.93164 c 2.0922,7.6715 9.5839,11.15342 16.7969,7.80664 l 1.7343,-0.80664 c 7.2131,-3.34679 11.3364,-12.21718 9.2442,-19.88867 L 167.4864,176.60161 c -1.5692,-5.75362 -6.1758,-9.15126 -11.4238,-9.07813 z" />
      <rect
         style="fill:#ffa703;fill-opacity:1;stroke:#16feeb;stroke-width:0.990067;stroke-opacity:0"
         id="rect4-1-2-2"
         width="25.640554"
         height="84.344475"
         x="359.19345"
         y="100.81841"
         ry="12.852492" />
      <rect
         style="fill:#ffa703;fill-opacity:1;stroke:#16feeb;stroke-width:0.990067;stroke-opacity:0"
         id="rect4-1-2-4-1"
         width="25.640554"
         height="84.344475"
         x="217.76999"
         y="100.52452"
         ry="12.852492" />
      <rect
         style="fill:#ffa703;fill-opacity:1;stroke:#16feeb;stroke-width:1.27411;stroke-opacity:0"
         id="rect4-5-8-7-6"
         width="177.29295"
         height="31.167421"
         x="-41.277721"
         y="475.33618"
         ry="14.609713"
         transform="matrix(-0.26273976,0.96486674,0.90686166,0.42142843,0,0)" />
      <path
         id="rect4-2-7-85"
         style="fill:#e85323;fill-opacity:1;stroke:#16feeb;stroke-width:1.8588;stroke-opacity:0"
         d="m 151.75989,163.84965 c -9.319,-0.004 -16.85856,7.49563 -16.90436,16.81446 l -0.011,2.24218 c -0.017,3.4635 1.0097,6.67338 2.77728,9.34376 l 7.47462,-1.8e-4 c 4.89951,-1.5e-4 9.27087,2.89916 12.26953,7.48632 l 288.31648,0.10938 c 9.3189,0.004 16.85646,-7.49563 16.90226,-16.81446 l 0.0117,-2.24414 c 0.0458,-9.31883 -7.41935,-16.82265 -16.73825,-16.82616 z" />
      <path
         id="rect4-5-76"
         style="fill:#e85323;fill-opacity:1;stroke:#16feeb;stroke-width:1.25668;stroke-opacity:0"
         d="m 151.4649,163.99223 c -1.7562,0.0319 -3.5841,0.45456 -5.3965,1.30664 l -1.746,0.82032 c -7.2493,3.40834 -11.4082,12.37988 -9.3262,20.11523 l 1.6191,6.01562 h 8.4824 c 9.0795,-1e-5 16.3907,9.90129 16.3907,22.19922 0,10.74444 -5.582,19.65584 -13.0469,21.73633 l 7.5762,28.15039 h 10.2832 c 9.0779,0 16.3867,10.50701 16.3867,23.5586 0,11.9116 -6.0942,21.67717 -14.0586,23.29687 l 4.8574,18.04883 c 2.082,7.73535 9.5944,11.21889 16.8438,7.81055 l 1.7441,-0.82032 c 7.2494,-3.40834 11.4101,-12.37793 9.3281,-20.11328 L 162.9122,173.10942 c -1.5615,-5.80151 -6.1785,-9.21276 -11.4473,-9.11719 z" />
      <rect
         style="fill:#e85323;fill-opacity:1;stroke:#16feeb;stroke-width:1.27695;stroke-opacity:0"
         id="rect4-5-1-1"
         width="177.96153"
         height="31.188942"
         x="238.56165"
         y="-167.19415"
         ry="14.619802"
         transform="matrix(0.26174291,0.96513763,-0.90620225,0.42284451,0,0)" />
      <rect
         style="fill:#e85323;fill-opacity:1;stroke:#16feeb;stroke-width:1.26892;stroke-opacity:0"
         id="rect4-5-7-8"
         width="176.07097"
         height="31.128279"
         x="262.01813"
         y="-221.38409"
         ry="14.591364"
         transform="matrix(0.2645813,0.96436338,-0.90806398,0.41883147,0,0)" />
      <rect
         style="fill:#e85323;fill-opacity:1;stroke:#16feeb;stroke-width:1.2724;stroke-opacity:0"
         id="rect4-5-3-9"
         width="176.89186"
         height="31.154545"
         x="287.49911"
         y="-278.77228"
         ry="14.603679"
         transform="matrix(0.26334136,0.96470271,-0.9072567,0.42057733,0,0)" />
      <rect
         style="fill:#e85323;fill-opacity:1;stroke:#16feeb;stroke-width:1.25101;stroke-opacity:0"
         id="rect4-5-34-2"
         width="173.97658"
         height="30.620256"
         x="309.99805"
         y="-331.93903"
         ry="14.35323"
         transform="matrix(0.26312016,0.96476307,-0.90711168,0.42089,0,0)" />
      <rect
         style="fill:#e85323;fill-opacity:1;stroke:#16feeb;stroke-width:1.27411;stroke-opacity:0"
         id="rect4-5-8-79"
         width="177.29295"
         height="31.167421"
         x="-39.913769"
         y="471.21338"
         ry="14.609713"
         transform="matrix(-0.26273976,0.96486674,0.90686166,0.42142843,0,0)" />
      <rect
         style="fill:#e85323;fill-opacity:1;stroke:#16feeb;stroke-width:0.990067;stroke-opacity:0"
         id="rect4-54"
         width="25.640554"
         height="84.344475"
         x="213.63058"
         y="98.163849"
         ry="12.852492" />
      <rect
         style="fill:#e85323;fill-opacity:1;stroke:#16feeb;stroke-width:0.990067;stroke-opacity:0"
         id="rect4-1-31"
         width="25.640554"
         height="84.344475"
         x="355.98508"
         y="99.395294"
         ry="12.852492" />
      <rect
         style="fill:#e85323;fill-opacity:1;stroke:#16feeb;stroke-width:1.40639;stroke-opacity:0"
         id="rect4-1-5-2"
         width="26.091423"
         height="167.2494"
         x="97.552483"
         y="-381.66049"
         ry="13.013014"
         transform="rotate(90)" />
      <rect
         style="fill:#e85323;fill-opacity:1;stroke:#000000;stroke-width:1.62756;stroke-opacity:0"
         id="rect4-2-3"
         width="252.46225"
         height="35.715508"
         x="173.00539"
         y="303.6131"
         ry="16.741631"
         transform="matrix(0.99999988,4.8770381e-4,-0.00380338,0.99999277,0,0)" />
    </g>
  </g>
</svg>
